<?xml version="1.0" encoding="UTF-8"?>
<svg width="325px" height="257px" viewBox="0 0 325 257" version="1.1" xmlns="http://www.w3.org/2000/svg" xmlns:xlink="http://www.w3.org/1999/xlink">
    <!-- Generator: Sketch 41.2 (35397) - http://www.bohemiancoding.com/sketch -->
    <title>Group 7</title>
    <desc>Created with Sketch.</desc>
    <defs></defs>
    <g id="homepage" stroke="none" stroke-width="1" fill="none" fill-rule="evenodd">
        <g id="Desktop-HD-Copy-8" transform="translate(-251.000000, -6265.000000)">
            <g id="Group-7" transform="translate(252.000000, 6266.000000)">
                <polygon id="Stroke-29-Copy" stroke="#082674" stroke-width="2" points="30 155.170879 31.5905943 152.2707 33.0246416 157.118688 35.8321791 152 42 164 35.6563054 156.369956 32.7083266 161.743963"></polygon>
                <path d="M253,157 C240.296939,157 230,158.211873 230,159.707282 L232.299815,205.563197 C232.299815,206.909377 241.56706,208 253,208 C264.43294,208 273.700185,206.909377 273.700185,205.563197 L276,159.707282 C276,158.211873 265.703061,157 253,157 Z" id="Stroke-31-Copy" stroke="#082674" stroke-width="2"></path>
                <path d="M276,159.5 C276,160.881354 265.701963,162 253.000309,162 C240.298037,162 230,160.881354 230,159.5 C230,158.118646 240.298037,157 253.000309,157 C265.701963,157 276,158.118646 276,159.5 Z" id="Stroke-33-Copy" stroke="#082674" stroke-width="2"></path>
                <path d="M228.853334,167.508254 C228.853334,167.508254 225.910382,164.481419 225.004317,165.077837 C225.004317,165.077837 224.665129,179.414543 230,192 L228.853334,167.508254 Z" id="Stroke-35-Copy" stroke="#092674" stroke-width="2.149"></path>
                <path d="M225,165.093109 L229,165 L229,168 C229,168 226.999695,165.046921 225,165.093109 Z" id="Stroke-37-Copy" stroke="#092674" stroke-width="2.149"></path>
                <path d="M269,137.5 C269,141.641634 265.641773,145 261.500926,145 C257.358227,145 254,141.641634 254,137.5 C254,133.358366 257.358227,130 261.500926,130 C265.641773,130 269,133.358366 269,137.5 Z" id="Stroke-39-Copy" stroke="#092674" stroke-width="2.149"></path>
                <path d="M241,146.5 C241,147.328358 240.327847,148 239.499671,148 C238.670836,148 238,147.328358 238,146.5 C238,145.671642 238.670836,145 239.499671,145 C240.327847,145 241,145.671642 241,146.5 Z" id="Stroke-41-Copy" stroke="#092674" stroke-width="2.149"></path>
                <path d="M255,105.5 C255,106.328358 254.327847,107 253.499671,107 C252.670836,107 252,106.328358 252,105.5 C252,104.671642 252.670836,104 253.499671,104 C254.327847,104 255,104.671642 255,105.5 Z" id="Stroke-43-Copy" stroke="#092674" stroke-width="2.149"></path>
                <path d="M251,149.5 C251,150.328358 250.327847,151 249.499671,151 C248.670836,151 248,150.328358 248,149.5 C248,148.671642 248.670836,148 249.499671,148 C250.327847,148 251,148.671642 251,149.5 Z" id="Stroke-45-Copy" stroke="#092674" stroke-width="2.149"></path>
                <path d="M260,123.5 C260,124.328358 259.327847,125 258.499671,125 C257.670836,125 257,124.328358 257,123.5 C257,122.671642 257.670836,122 258.499671,122 C259.327847,122 260,122.671642 260,123.5 Z" id="Stroke-47-Copy" stroke="#092674" stroke-width="2.149"></path>
                <path d="M274,101.5 C274,103.433032 272.432374,105 270.499342,105 C268.565651,105 267,103.433032 267,101.5 C267,99.5669676 268.565651,98 270.499342,98 C272.432374,98 274,99.5669676 274,101.5 Z" id="Stroke-49-Copy" stroke="#092674" stroke-width="2.149"></path>
                <path d="M245,120.5 C245,122.433032 243.432374,124 241.499342,124 C239.565651,124 238,122.433032 238,120.5 C238,118.566968 239.565651,117 241.499342,117 C243.432374,117 245,118.566968 245,120.5 Z" id="Stroke-51-Copy" stroke="#092674" stroke-width="2.149"></path>
                <path d="M56,180 L56,187" id="Fill-53-Copy" fill="#FFFFFF"></path>
                <path d="M56,180 L56,187" id="Stroke-55-Copy" stroke="#082674" stroke-width="1.552"></path>
                <path d="M216,199.173305 C216,201.828267 213.823274,204 211.163593,204 L85.83703,204 C83.1767258,204 81,201.828267 81,199.173305 L81,119.827317 C81,117.172355 83.1767258,115 85.83703,115 L211.163593,115 C213.823274,115 216,117.172355 216,119.827317 L216,199.173305 Z" id="Stroke-57-Copy" stroke="#082674" stroke-width="2"></path>
                <path d="M56.9512632,191 C56.9512632,191 51.8706478,221.160055 65.1924469,221.160055 C78.514246,221.160055 66.6334129,207.846027 73.0550823,207.52157 C74.545694,207.446261 80.3734769,208.550795 82.382886,209.885649 C86.0696987,212.333196 90.3764619,221.400416 94.56904,222.783594 C98.8937997,224.210702 110.599011,218.614606 99.0520454,204.949763" id="Stroke-59-Copy" stroke="#082674" stroke-width="2"></path>
                <path d="M81,153 L81,164.933095 L67.6599971,175 C67.6599971,175 66.7417801,169.363053 59,167.454773 L81,153 Z" id="Stroke-61-Copy" stroke="#092674" stroke-width="2.149"></path>
                <path d="M58,181 L62,181" id="Fill-63-Copy" fill="#FFFFFF"></path>
                <path d="M58,181 L62,181" id="Stroke-65-Copy" stroke="#082674" stroke-width="1.552"></path>
                <path d="M49,181 L53,181" id="Fill-67-Copy" fill="#FFFFFF"></path>
                <path d="M49,181 L53,181" id="Stroke-69-Copy" stroke="#082674" stroke-width="1.552"></path>
                <path d="M63.9408704,176.727256 C60.0379314,168.025963 53.9813255,171.825984 53.9813255,171.825984 C53.9813255,171.825984 50.5262647,175.535719 50.1243545,182.686172 C50.0883255,183.324934 49.5814342,183.77821 49,183.782509 C49.8261832,187.341766 53.0427068,190 56.894087,190 C61.3703847,190 65,186.411876 65,181.985376 L65,178.216064 C64.6204527,177.911423 64.2576775,177.43358 63.9408704,176.727256 Z" id="Stroke-71-Copy" stroke="#092674" stroke-width="2.149"></path>
                <path d="M64.5667693,178.338277 C66.1845685,179.667023 68.1009527,177.736062 67.9958607,176.823993 C67.5897109,173.303159 63.9331262,169.716731 62.1583071,168.581643 C60.9843672,167.830749 58.3997213,167.445306 58.3997213,167.445306 C58.3997213,161.218877 52.6048228,157.42942 52.6048228,157.42942 C49.4489707,155.732723 49.7630104,159.611512 49.7630104,159.611512 C54.3215321,161.793605 55.4460169,167.445306 55.4460169,167.445306 C55.4460169,167.445306 46.884725,166.884321 45.3250355,174.278323 C44.027458,180.432286 46.9341801,176.455418 48.4332871,173.246936 L47.8441535,174.884911 C45.7985679,181.880351 47.3941123,184.008719 48.6440893,183.999973" id="Stroke-73-Copy" stroke="#092674" stroke-width="2.149"></path>
                <path d="M196,118.000859 L208.438187,118.000859 C208.438187,118.000859 212,117.789436 212,124" id="Stroke-75-Copy" stroke="#092674" stroke-width="2.149" stroke-linecap="round" stroke-linejoin="round"></path>
                <path d="M212,128 L212,133" id="Stroke-77-Copy" stroke="#092674" stroke-width="2.149" stroke-linecap="round" stroke-linejoin="round"></path>
                <path d="M95,118.000223 L88.8534967,118.000852 C88.8534967,118.000852 85,117.790057 85,124" id="Stroke-79-Copy" stroke="#092674" stroke-width="2.149" stroke-linecap="round" stroke-linejoin="round"></path>
                <path d="M85,130 L85,149" id="Stroke-81-Copy" stroke="#092674" stroke-width="2.149" stroke-linecap="round" stroke-linejoin="round"></path>
                <path d="M213,205.5 C213,206.325267 211.723752,207 210.164378,207 L87.835,207 C86.2756255,207 85,206.325267 85,205.5 C85,204.674733 86.2756255,204 87.835,204 L210.164378,204 C211.723752,204 213,204.674733 213,205.5 Z" id="Stroke-83-Copy" stroke="#082674" stroke-width="2"></path>
                <polygon id="Stroke-85-Copy" stroke="#082674" stroke-width="2.428" points="147.5 171 134 157.500307 147.5 144 161 157.500307"></polygon>
                <path d="M185.198178,86.986327 C185.198178,87.0663739 185.192558,87.1457955 185.191934,87.2258425 C188.747071,87.6417114 192.492015,87.85246 196.436756,87.8199409 C196.436756,87.8199409 191.025381,81.9833927 192.274112,78.231192 C192.274112,78.231192 206.843056,81.5662731 216,68.2253235 C216,68.2253235 206.488416,65.3392558 205.594325,57.3864664 C202.909553,33.5143402 189.682995,-21.6117418 121.512898,11.1086991 C121.512898,11.1086991 113.570345,-0.591288092 107.28236,25.2832626 C107.28236,25.2832626 107.57831,30.2599314 111.949492,30.3262203 C108.544827,30.6307739 95.706,33.2404295 95.706,55.3008682 C95.706,61.9716557 97.5790964,75.5214778 93,81.1497788 C93,81.1497788 99.8680203,81.7751456 102.57402,75.1043581 C102.57402,75.1043581 101.325289,89.279547 95.706,90.9467748 C95.706,90.9467748 104.329112,92.0305355 112.771782,84.4173203" id="Stroke-99-Copy" stroke="#082674" stroke-width="2" fill="#FFFFFF"></path>
                <polyline id="Stroke-87-Copy" stroke="#092674" stroke-width="2.149" stroke-linecap="round" stroke-linejoin="round" points="145 152.402864 148.399473 149 155 156"></polyline>
                <path d="M216,169 L226,169" id="Stroke-89-Copy" stroke="#082674" stroke-width="2"></path>
                <path d="M75,169 L80,169" id="Stroke-91-Copy" stroke="#082674" stroke-width="2"></path>
                <path d="M276.183334,169 L291.130535,169 C293.73577,169 296.554938,171.007484 297.395075,173.461145 L322.760723,247.538855 C323.60086,249.992516 322.156972,252 319.551736,252 L3.44882646,252 C0.843591267,252 -0.600920276,249.992516 0.239216618,247.538855 L25.6048643,173.461145 C26.4450012,171.007484 29.2641688,169 31.869404,169 L49.395645,169" id="Stroke-93-Copy" stroke="#082674" stroke-width="2"></path>
                <path d="M321,254.199965 C321,254.639747 320.573168,255 320.052108,255 L3.94789206,255 C3.42683224,255 3,254.639747 3,254.199965 L3,252.800035 C3,252.360253 3.42683224,252 3.94789206,252 L320.052108,252 C320.573168,252 321,252.360253 321,252.800035 L321,254.199965 Z" id="Stroke-95-Copy" stroke="#082674" stroke-width="2"></path>
                <path d="M108.240102,21.5051302 C107.575378,23.4263313 105.443161,24.4595461 103.501843,23.8017101 L102.521235,23.4694075 C100.579917,22.8115716 99.5352616,20.7014503 100.200608,18.7802493 L103.759898,8.49486979 C104.424622,6.57366872 106.556839,5.54045392 108.498157,6.1982899 L109.478765,6.53059246 C111.420083,7.18842844 112.464738,9.29854967 111.799392,11.2197507 L108.240102,21.5051302 Z" id="Fill-101-Copy" fill="#092674"></path>
                <polygon id="Stroke-107-Copy" stroke="#092674" stroke-width="3.043" points="141.094865 85 157 85 157 88 141 88"></polygon>
                <path d="M200,85.5 C200,97.3739445 190.374084,107 178.500312,107 C166.625916,107 157,97.3739445 157,85.5 C157,73.6254316 166.625916,64 178.500312,64 C190.374084,64 200,73.6254316 200,85.5 Z" id="Stroke-111-Copy" stroke="#092674" stroke-width="3.067"></path>
                <path d="M141,85.5 C141,97.3739508 131.37381,107 119.499686,107 C107.625561,107 98,97.3739508 98,85.5 C98,73.6260492 107.625561,64 119.499686,64 C131.37381,64 141,73.6260492 141,85.5 Z" id="Stroke-115-Copy" stroke="#092674" stroke-width="3.043"></path>
                <path d="M185,87 L185,90 L189.188163,90 C189.894569,90 190.53479,89.0675579 191,87.5564574" id="Stroke-125-Copy" stroke="#092674" stroke-width="1.415"></path>
                <path d="M107,87.6226959 C107.376177,88.4873272 107.844875,89 108.353463,89 L112,89 L112,84" id="Stroke-127-Copy" stroke="#092674" stroke-width="1.415"></path>
                <path d="M172.223209,113.999384 C180.561031,107.493887 185.925735,97.4875167 186,86.25131 C143.453065,81.3868283 128.10475,48 128.10475,48 C125.675403,67.3858009 119.38868,77.8489674 113,83.4827905 L113,86.015206 C113,97.3481969 118.382955,107.449502 126.781197,114" id="Stroke-97-Copy" stroke="#082674" stroke-width="2"></path>
                <path d="M108.240102,21.5051302 C107.575378,23.4263313 105.443161,24.4595461 103.501843,23.8017101 L102.521235,23.4694075 C100.579917,22.8115716 99.5352616,20.7014503 100.200608,18.7802493 L103.759898,8.49486979 C104.424622,6.57366872 106.556839,5.54045392 108.498157,6.1982899 L109.478765,6.53059246 C111.420083,7.18842844 112.464738,9.29854967 111.799392,11.2197507 L108.240102,21.5051302 Z" id="Stroke-103-Copy" stroke="#092674" stroke-width="3.067"></path>
                <path d="M103,9.53352745 C103,9.53352745 97.7155742,-3.59425491 86.2794575,0.960076709 C86.2794575,0.960076709 90.1959358,3.07705568 90.1959358,4.76686976 C90.1959358,4.76686976 75.4699774,2.37348997 75,22.7894593 C75,27.8149287 78.4465009,31.5840307 75,42.8913368 C75,42.8913368 78.60316,42.1061072 79.8564331,38.1799592 C79.8564331,38.1799592 79.8564331,48.7020357 75.9399548,52 C75.9399548,52 95.3656872,52 94.4257324,20.7478624 C94.4257324,13.0526124 100.334288,17.3355687 100.319249,17.3795415 C100.30421,17.4241425 103,9.53352745 103,9.53352745 Z" id="Stroke-105-Copy" stroke="#082674" stroke-width="2" fill="#FFFFFF"></path>
                <path d="M200,85.5 C200,97.3740351 190.374176,107 178.500314,107 C166.625824,107 157,97.3740351 157,85.5 C157,73.6259649 166.625824,64 178.500314,64 C190.374176,64 200,73.6259649 200,85.5" id="Fill-109-Copy" fill="#F7A623" opacity="0.402052239"></path>
                <path d="M141,85.5 C141,97.3740351 131.374176,107 119.500314,107 C107.625824,107 98,97.3740351 98,85.5 C98,73.6259649 107.625824,64 119.500314,64 C131.374176,64 141,73.6259649 141,85.5" id="Fill-113-Copy" fill="#F7A623" opacity="0.402052239"></path>
                <path d="M181,68 C181,68 187.333506,69.0966123 193,75" id="Stroke-117-Copy" stroke="#FFFFFF" stroke-width="2.151" stroke-linecap="round" stroke-linejoin="round"></path>
                <path d="M124,68 C124,68 130.522486,69.3803922 136,75" id="Stroke-119-Copy" stroke="#FFFFFF" stroke-width="2.151" stroke-linecap="round" stroke-linejoin="round"></path>
                <path d="M142,104 C142,104 147.172047,108.5 156,104" id="Stroke-129-Copy" stroke="#092674" stroke-width="2" stroke-linecap="round" stroke-linejoin="round"></path>
                <path d="M164.318182,85.5 L170.681818,85.5" id="Line" stroke="#0A2674" stroke-width="2" stroke-linecap="square"></path>
                <path d="M127.318182,85.5 L133.681818,85.5" id="Line-Copy" stroke="#0A2674" stroke-width="2" stroke-linecap="square"></path>
            </g>
        </g>
    </g>
</svg>