<?xml version="1.0" encoding="UTF-8"?>
<svg width="908px" height="342px" viewBox="0 0 908 342" version="1.1" xmlns="http://www.w3.org/2000/svg" xmlns:xlink="http://www.w3.org/1999/xlink">
    <!-- Generator: Sketch 41.2 (35397) - http://www.bohemiancoding.com/sketch -->
    <title>Group 2</title>
    <desc>Created with Sketch.</desc>
    <defs>
        <polygon id="path-1" points="0.994266562 0.381033543 0.278966877 0.381033543 0.278966877 5.14681237 0.994266562 5.14681237 0.994266562 0.381033543"></polygon>
    </defs>
    <g id="homepage" stroke="none" stroke-width="1" fill="none" fill-rule="evenodd" opacity="0.5">
        <g id="Desktop-HD-Copy-8" transform="translate(-268.000000, -1759.000000)">
            <g id="Group-2" transform="translate(269.000000, 1759.000000)">
                <text id="63%-copy" font-family="AdventPro-Regular, Advent Pro" font-size="18" font-weight="normal" fill="#082674">
                    <tspan x="879" y="80">63%</tspan>
                </text>
                <g id="Group-264-Copy" transform="translate(667.000000, 31.000000)" stroke="#082674">
                    <path d="M128.82072,10.93229 C129.012694,12.0215981 128.787089,13.0169156 128.142503,13.9189441 C127.497917,14.8202711 126.623522,15.3624701 125.522822,15.5455412 C124.420019,15.7286123 123.415306,15.4943374 122.50728,14.8441194 C121.599255,14.1932 121.05486,13.3171242 120.871994,12.2130863 C120.689828,11.1104512 120.921038,10.1081194 121.565624,9.206091 C122.20951,8.30406256 123.060783,7.75695355 124.118045,7.56265972 C125.175306,7.3690673 126.158299,7.56616682 127.068427,8.15536114 C128.044414,8.91710521 128.627344,9.84298199 128.82072,10.93229 Z M133.545815,7.24701991 C134.275178,6.22645118 134.54142,5.10137062 134.344541,3.87107678 C134.146962,2.64078294 133.534605,1.65738957 132.508873,0.922299526 C131.481739,0.187209479 130.355115,-0.0758236967 129.128299,0.1332 C127.901484,0.342925118 126.923395,0.958072038 126.194032,1.97864076 C125.264987,3.27837536 125.068809,4.66087773 125.606197,6.1240436 C124.609191,5.98095355 123.645115,6.10440379 122.713268,6.49299147 C121.780019,6.88157915 121.009318,7.50303886 120.399764,8.35526635 C119.509955,9.60029005 119.188363,10.9645555 119.434987,12.4522711 C119.68021,13.9392853 120.425688,15.1274938 121.667917,16.0182995 C122.910847,16.9091052 124.274287,17.2310578 125.760338,16.9848588 C127.246389,16.7379583 128.432567,15.9930483 129.323076,14.7487261 C129.922121,13.9098256 130.252822,12.9895602 130.315178,11.9872284 C130.377535,10.9848967 130.191866,10.0330673 129.759573,9.13174028 C131.344414,9.18855545 132.606261,8.56078294 133.545815,7.24701991 Z M126.742631,5.02000569 C126.613713,4.19723791 126.79728,3.43689668 127.297535,2.73757915 C127.797089,2.03896303 128.478809,1.61810995 129.341293,1.47572133 C130.203777,1.33192986 130.98779,1.51289668 131.693331,2.0186218 C132.397471,2.5236455 132.822057,3.20823318 132.964287,4.07168341 C133.107917,4.93513365 132.926452,5.72002464 132.422694,6.42565498 C131.917535,7.13198673 131.235115,7.54652701 130.376834,7.67138009 C129.515752,7.79483033 128.710019,7.58650806 127.956134,7.04641327 C127.277217,6.51824265 126.872949,5.84277346 126.742631,5.02000569 Z" id="Stroke-246"></path>
                    <path d="M133.909236,23.6633763 C134.841783,23.8352246 135.674841,23.7931393 136.407006,23.5357175 C137.839108,23.0391109 138.970637,22.2114332 139.79949,21.0505801 L143.667707,15.6405137 C144.556815,14.3968929 144.878408,13.0312246 144.633185,11.543509 C144.38586,10.0571962 143.645287,8.87039052 142.409363,7.98449479 C141.173439,7.09930047 139.812803,6.77945213 138.328854,7.02635261 C136.842102,7.27255166 135.658025,8.0139545 134.773121,9.25196398 C133.888917,10.4885706 133.568726,11.8507318 133.816051,13.337746 C134.061274,14.8247602 134.823567,16.0262957 136.100828,16.9416512 C137.37879,17.8577081 138.79758,18.1551109 140.356497,17.8345611 L138.752739,20.0784095 C137.813185,21.3928739 136.716688,22.1139355 135.463949,22.2408929 C134.211911,22.3692531 133.061465,22.0571204 132.014713,21.3073005 L131.197771,20.7223147 L130.373121,21.8754521 L131.105987,22.4001156 C132.042038,23.0706749 132.975287,23.4922294 133.909236,23.6633763 Z M135.917261,10.0880588 C136.577261,9.16498768 137.457261,8.6122673 138.560064,8.42919621 C139.662166,8.24682654 140.669682,8.48250427 141.584713,9.13763223 C142.499745,9.79346161 143.056051,10.6625232 143.253631,11.7448171 C143.45051,12.8271109 143.212293,13.839964 142.53758,14.7840777 C141.863567,15.72749 140.980764,16.2893289 139.890573,16.4702957 C138.799682,16.6512626 137.794968,16.4113763 136.87293,15.7513384 C135.951592,15.0905991 135.396688,14.212419 135.208917,13.1160967 C135.021847,12.0197744 135.257962,11.009727 135.917261,10.0880588 Z" id="Stroke-248"></path>
                    <path d="M160.625153,21.3851583 L160.40165,19.9254995 L138.046427,26.0734616 L138.180248,27.437727 L160.625153,21.3851583 Z M152.098401,33.2244569 C152.698146,32.3855564 152.913943,31.4624853 152.747892,30.4552436 C152.58114,29.4473005 152.078783,28.6434711 151.240121,28.043054 C150.40286,27.442637 149.480822,27.2258976 148.474707,27.3935374 C147.468592,27.5604758 146.664962,28.0633953 146.065917,28.9015943 C145.465471,29.7404948 145.249675,30.6642673 145.416427,31.671509 C145.582478,32.6780493 146.085535,33.4818787 146.922796,34.0829972 C147.761459,34.6827128 148.682796,34.8994521 149.689611,34.7325137 C150.695025,34.5655754 151.498656,34.0633573 152.098401,33.2244569 Z M147.672478,33.0336701 C147.086045,32.6142199 146.753242,32.0741251 146.676172,31.4161915 C146.597701,30.756855 146.743433,30.1690635 147.113369,29.6521156 C147.482605,29.1351678 147.991968,28.8069024 148.640057,28.6694237 C149.286745,28.5305422 149.904006,28.6722294 150.490439,29.0916796 C151.077573,29.5118313 151.409675,30.0512246 151.488146,30.7098597 C151.565917,31.3684948 151.420185,31.9569877 151.050949,32.4739355 C150.681013,32.9908834 150.17165,33.3184474 149.524261,33.4566275 C148.875471,33.5948076 148.259611,33.4545232 147.672478,33.0336701 Z M152.329611,19.1202673 C152.930057,18.2813668 153.145854,17.3582957 152.979102,16.351054 C152.813051,15.3438123 152.310694,14.5399829 151.472732,13.9395659 C150.634771,13.3391488 149.712732,13.1224095 148.705917,13.2893479 C147.700503,13.4562863 146.896873,13.9592057 146.297828,14.7981062 C145.697382,15.6370066 145.481586,16.5600777 145.648338,17.5673194 C145.814389,18.5745611 146.316745,19.3783905 147.154707,19.9788076 C147.992669,20.5792246 148.914707,20.795964 149.921522,20.6290256 C150.926936,20.4620872 151.730567,19.9591678 152.329611,19.1202673 Z M147.905089,18.930182 C147.318656,18.5100303 146.985153,17.970637 146.907382,17.3120019 C146.829611,16.6533668 146.975344,16.0655754 147.34458,15.5486275 C147.714516,15.0309782 148.223178,14.7034142 148.871968,14.5652341 C149.518656,14.4263526 150.136618,14.5673384 150.723051,14.9881915 C151.309484,15.4083431 151.641586,15.9477365 151.720057,16.6063716 C151.797828,17.2643052 151.652796,17.8527981 151.28286,18.3704474 C150.913624,18.8873953 150.404261,19.2149592 149.755471,19.3531393 C149.108083,19.4913194 148.491522,19.3503336 147.905089,18.930182 Z" id="Stroke-250"></path>
                    <path d="M203.803586,119.885261 L199.358045,121.614967 L200.907153,114.546038 C201.065497,113.601223 201.008745,112.778455 200.736197,112.078436 C200.46435,111.377716 199.961293,110.89654 199.227025,110.633507 C198.56072,110.390114 197.882503,110.403441 197.193076,110.671384 C196.50435,110.940028 196.012503,111.332123 195.716834,111.846967 C195.422567,112.361109 195.28314,112.932066 195.299255,113.558436 L196.228299,113.554227 C196.217089,113.093393 196.31728,112.678152 196.532376,112.308502 C196.74607,111.938152 197.060656,111.673014 197.475433,111.511687 C197.88951,111.35036 198.34072,111.353867 198.829764,111.522209 C199.318809,111.69055 199.674732,112.064408 199.901038,112.645185 C200.081803,113.112332 200.102822,113.719062 199.964096,114.465374 L198.34142,121.99163 L198.662312,122.817204 L204.117471,120.694 L203.803586,119.885261 Z" id="Stroke-252" stroke-width="0.647"></path>
                    <path d="M210.004643,117.47237 L205.559102,119.202076 L207.10821,112.133147 C207.266554,111.18763 207.209803,110.365564 206.937955,109.665545 C206.665408,108.964825 206.163051,108.482948 205.428783,108.219915 C204.761777,107.977223 204.083561,107.989848 203.394834,108.258493 C202.705408,108.526436 202.214261,108.919232 201.918592,109.433374 C201.623624,109.947517 201.484197,110.518474 201.500312,111.144844 L202.429357,111.141336 C202.418146,110.680502 202.519038,110.265261 202.732732,109.895611 C202.947828,109.525261 203.261713,109.259422 203.67649,109.098095 C204.090567,108.936768 204.541777,108.940976 205.030822,109.108616 C205.519866,109.276957 205.87649,109.650815 206.102096,110.231592 C206.28286,110.698739 206.30458,111.305469 206.165153,112.051782 L204.543178,119.578739 L204.863369,120.404313 L210.318529,118.281109 L210.004643,117.47237 Z" id="Stroke-254" stroke-width="0.647"></path>
                    <path d="M216.431446,103.382279 L215.561955,102.986677 L210.972083,117.292876 L211.757497,117.703208 L216.431446,103.382279 Z M219.820427,112.201956 C219.578006,111.579795 219.155522,111.134392 218.550172,110.869255 C217.946223,110.602013 217.333166,110.589388 216.711701,110.831378 C216.090236,111.073369 215.646732,111.497027 215.37979,112.103056 C215.114248,112.70698 215.102338,113.321426 215.343357,113.944288 C215.585076,114.565748 216.008261,115.009748 216.61221,115.276288 C217.21686,115.542828 217.829917,115.554753 218.452083,115.312762 C219.073548,115.070772 219.517051,114.648516 219.782592,114.042487 C220.048834,113.43716 220.061446,112.824118 219.820427,112.201956 Z M218.149408,114.534885 C217.714312,114.704629 217.304439,114.693407 216.92049,114.50262 C216.535841,114.312535 216.270299,114.024952 216.121064,113.641274 C215.971828,113.257596 215.974631,112.865501 216.128771,112.464288 C216.283611,112.063776 216.57858,111.7797 217.013675,111.609956 C217.448771,111.440914 217.858643,111.451435 218.242592,111.64152 C218.627242,111.833009 218.894185,112.120591 219.04342,112.504269 C219.191255,112.887947 219.189153,113.280042 219.034312,113.680554 C218.879471,114.081065 218.584503,114.365843 218.149408,114.534885 Z M212.267561,107.080174 C212.025841,106.458715 211.602656,106.013312 210.998006,105.748174 C210.394057,105.480933 209.781,105.469009 209.158834,105.710298 C208.537369,105.95299 208.093866,106.375947 207.827624,106.981975 C207.562083,107.5859 207.549471,108.200345 207.791191,108.822506 C208.032911,109.445369 208.455395,109.888667 209.060045,110.155208 C209.664694,110.422449 210.277752,110.434373 210.899217,110.192383 C211.520682,109.950392 211.964885,109.527435 212.231127,108.921407 C212.496669,108.316781 212.50858,107.703037 212.267561,107.080174 Z M210.597242,109.413805 C210.162146,109.582847 209.752274,109.573027 209.368325,109.382241 C208.983675,109.191454 208.717433,108.903871 208.568197,108.519492 C208.419662,108.136516 208.421764,107.744421 208.576605,107.343208 C208.731446,106.943397 209.026414,106.65862 209.46151,106.489577 C209.896605,106.319833 210.306478,106.330355 210.690427,106.521141 C211.074376,106.711928 211.341318,106.999511 211.489854,107.382487 C211.63979,107.766866 211.636287,108.159663 211.482146,108.559473 C211.327306,108.959985 211.032338,109.244061 210.597242,109.413805 Z" id="Stroke-256" stroke-width="0.647"></path>
                    <path d="M1.01298089,139.793926 C1.47119745,140.655272 2.16833121,141.227632 3.10438217,141.512409 C4.04043312,141.797888 4.94075159,141.712315 5.80673885,141.254988 C6.67202548,140.796959 7.24794904,140.09694 7.53450955,139.155632 C7.82107006,138.212921 7.73489172,137.311594 7.27597452,136.450248 C6.81775796,135.588902 6.11501911,135.014438 5.1684586,134.725452 C4.62616561,134.560618 4.09438217,134.523443 3.57240764,134.614627 C3.05043312,134.705111 2.61743949,134.919045 2.2706242,135.256428 L2.86336306,133.307879 C3.16743949,132.30695 3.69081529,131.637793 4.43278981,131.299007 C5.17476433,130.960921 5.94476433,130.913225 6.74208917,131.156618 L7.36425478,131.346002 L7.63119745,130.467822 L7.07278981,130.297376 C6.36024204,130.079936 5.70024204,130.016808 5.09208917,130.105187 C4.48463694,130.192864 3.9773758,130.389964 3.57030573,130.695784 C2.80591083,131.301111 2.28884076,132.043917 2.01979618,132.928409 L0.757248408,137.080125 C0.469286624,138.027746 0.554063694,138.931879 1.01298089,139.793926 Z M2.94323567,135.766362 C3.56820382,135.450722 4.22610191,135.398116 4.91763057,135.608542 C5.6084586,135.81967 6.12482803,136.242627 6.46743949,136.87531 C6.80864968,137.508694 6.87310828,138.177149 6.65941401,138.879272 C6.44571975,139.582798 6.01973248,140.103955 5.38215287,140.444845 C4.74317197,140.785035 4.07336306,140.848864 3.37132484,140.634229 C2.66998726,140.420997 2.15151592,139.994533 1.81591083,139.358343 C1.48100637,138.720751 1.42075159,138.051594 1.63444586,137.348068 L1.66387261,137.252675 C1.89157962,136.577907 2.31826752,136.082002 2.94323567,135.766362 Z" id="Stroke-258" stroke-width="0.647"></path>
                    <polygon id="Stroke-260" stroke-width="0.647" points="16.7443121 134.205137 17.0112548 133.326957 10.7258408 131.411374 10.4588981 132.289555 15.7234841 133.893706 7.53373885 142.653763 8.52303822 142.956076"></polygon>
                    <path d="M27.6146242,136.575873 L27.1760255,135.727153 L14.7355159,144.133693 L15.0998471,144.943134 L27.6146242,136.575873 Z M24.8337962,145.605977 C25.0278726,144.967683 24.9697197,144.356745 24.6586369,143.773162 C24.3482548,143.189579 23.8739236,142.80029 23.2363439,142.605996 C22.5980637,142.411001 21.9878089,142.46992 21.404879,142.781352 C20.821949,143.092082 20.4337962,143.567645 20.2397197,144.205939 C20.0456433,144.844233 20.1030955,145.455172 20.4141783,146.038755 C20.7245605,146.622337 21.1988917,147.010925 21.837172,147.205219 C22.4754522,147.400214 23.085707,147.341996 23.6679363,147.030565 C24.2508662,146.719835 24.6397197,146.244271 24.8337962,145.605977 Z M22.080293,146.407702 C21.6332866,146.270925 21.318,146.008593 21.1337325,145.621409 C20.949465,145.233522 20.9172357,144.84283 21.0370446,144.449333 C21.1568535,144.055134 21.4013758,143.747911 21.7699108,143.529067 C22.1391465,143.310224 22.5462166,143.26884 22.9932229,143.404916 C23.4395287,143.541693 23.7548153,143.803323 23.9390828,144.190508 C24.1233503,144.577693 24.1555796,144.969086 24.0364713,145.362584 C23.9166624,145.756783 23.6721401,146.063304 23.3029045,146.282849 C22.9343694,146.501693 22.5265987,146.543778 22.080293,146.407702 Z M22.0578726,136.907645 C22.251949,136.269352 22.1937962,135.65701 21.883414,135.074129 C21.5730318,134.490546 21.098,134.101958 20.4604204,133.906963 C19.8221401,133.712669 19.2118854,133.770887 18.6289554,134.082318 C18.0467261,134.39375 17.6578726,134.867911 17.4637962,135.506906 C17.2697197,136.145901 17.3278726,136.75684 17.6382548,137.339721 C17.9493376,137.923304 18.4236688,138.312593 19.061949,138.506887 C19.6995287,138.701181 20.3097834,138.642963 20.8927134,138.331532 C21.4756433,138.021503 21.8637962,137.546641 22.0578726,136.907645 Z M19.3043694,137.707968 C18.8580637,137.572593 18.5420764,137.310963 18.3585096,136.923077 C18.1735414,136.534489 18.1413121,136.144499 18.261121,135.749598 C18.3809299,135.356802 18.6254522,135.049579 18.9946879,134.830736 C19.3632229,134.611191 19.7709936,134.570508 20.2172994,134.705882 C20.6643057,134.841958 20.9795924,135.103589 21.1638599,135.491475 C21.3481274,135.879361 21.3803567,136.270755 21.2605478,136.664252 C21.1407389,137.058451 20.8962166,137.364973 20.5276815,137.583816 C20.1584459,137.803361 19.7513758,137.844745 19.3043694,137.707968 Z" id="Stroke-262" stroke-width="0.647"></path>
                </g>
                <g id="Page-1">
                    <g id="Group-303">
                        <path d="M564.245058,120.479804 C576.426611,96.0757849 564.245058,79.6720407 564.245058,79.6720407 C542.690217,94.6295732 507.693465,90.073613 483.286724,83.4981036 C473.723167,94.209221 467.902058,108.330338 467.902058,123.816171 C467.902058,157.277064 495.04339,184.402649 528.523707,184.402649 C561.26798,184.402649 587.932207,158.453049 589.089562,126.010152 C577.251352,127.398458 564.245058,120.479804 564.245058,120.479804 Z" id="Stroke-1" stroke="#082674" stroke-width="2"></path>
                        <path d="M589.089705,126.009866 C599.800602,124.753813 609.555859,116.699208 607.857022,90.5530147 C607.857022,90.5530147 614.29472,78.3999748 618.586518,86.2637065 C622.878316,94.1274382 617.871218,75.1372411 609.287622,75.3388386 C609.287622,75.3388386 607.40996,58.3832034 620.150878,56.953434 C620.150878,56.953434 605.493672,52.6641258 599.522351,59.8129727 C599.522351,59.8129727 600.704026,34.7920084 584.967433,31.2175849 C584.967433,31.2175849 592.120429,40.511086 582.821534,49.804587 C582.821534,49.804587 540.618852,12.6305828 498.416171,28.3580461 C456.213489,44.0855094 452.636991,52.6641258 443.338095,49.804587 C434.039199,46.9450482 467.658284,64.1022809 478.38778,61.2427421 C489.117275,58.3832034 466.10823,73.395782 456.511769,72.6808973 C452.373761,72.372782 464.791363,78.5150713 483.286867,83.4985325" id="Stroke-3" stroke="#082674" stroke-width="2"></path>
                        <path d="M525.234616,293.033096 L529.353311,309.815014 C529.634424,310.960974 530.82969,311.898188 532.009934,311.898188 L566.960192,311.898188 C568.140437,311.898188 569.063173,310.933808 569.010241,309.755678 L565.228452,225.673085 C565.175519,224.49424 565.390825,224.460641 565.706987,225.596592 L569.525257,239.335961 C569.841419,240.472628 571.065297,241.402693 572.245542,241.402693 L589.313307,241.402693 C590.493552,241.402693 590.983532,240.562704 590.401993,239.536129 L563.403722,191.869047 C562.822899,190.843188 561.415904,190.260557 560.278578,190.575106 C560.278578,190.575106 539.087109,196.437161 488.754332,189.076708 L460.070099,239.537559 C459.486415,240.563418 459.97568,241.402693 461.155924,241.402693 L478.22369,241.402693 C479.403934,241.402693 480.627812,240.472628 480.943975,239.335961 L484.762244,225.596592 C485.078407,224.460641 485.293712,224.49424 485.24078,225.673085 L481.45899,309.755678 C481.406058,310.933808 482.328795,311.898188 483.509039,311.898188 L518.459297,311.898188 C519.639542,311.898188 520.834807,310.960974 521.11592,309.815014 L525.234616,293.033096" id="Stroke-5" stroke="#082674" stroke-width="2"></path>
                        <path d="M559.569001,314.550053 C560.749245,314.550053 562.680554,314.56435 563.860799,314.581508 C563.860799,314.581508 577.928598,314.788109 578.882092,329.085803 L539.778804,329.085803 C538.59856,329.085803 537.632905,328.120709 537.632905,326.941149 L537.632905,316.694707 C537.632905,315.515147 538.59856,314.550053 539.778804,314.550053 L559.569001,314.550053 Z" id="Stroke-7" stroke="#082674" stroke-width="2"></path>
                        <path d="M490.900231,314.550053 C489.719986,314.550053 487.788677,314.56435 486.608433,314.581508 C486.608433,314.581508 472.540634,314.788109 471.587139,329.085803 L510.690427,329.085803 C511.870672,329.085803 512.836326,328.120709 512.836326,326.941149 L512.836326,316.694707 C512.836326,315.515147 511.870672,314.550053 510.690427,314.550053 L490.900231,314.550053 Z" id="Stroke-9" stroke="#082674" stroke-width="2"></path>
                        <path d="M542.993075,126.296106 C542.993075,126.296106 530.777187,113.509678 514.391102,119.641244 L514.054196,123.187072 C530.439565,117.055506 542.013114,129.654634 542.013114,129.654634 L542.993075,126.296106 Z" id="Fill-11" fill="#FFFFFF"></path>
                        <path d="M542.993075,126.296106 C542.993075,126.296106 530.777187,113.509678 514.391102,119.641244 L514.054196,123.187072 C530.439565,117.055506 542.013114,129.654634 542.013114,129.654634 L542.993075,126.296106 Z" id="Stroke-13" stroke="#082674" stroke-width="2"></path>
                        <path d="M448.523302,148.298398 C448.519726,150.264331 450.125574,151.875681 452.092648,151.879255 L510.379558,151.990062 C512.346632,151.994352 513.959633,150.388721 513.963209,148.422788 L514.047615,104.099937 C514.051191,102.134004 512.444628,100.522654 510.477554,100.518364 L452.190644,100.408272 C450.22357,100.403983 448.611284,102.009614 448.607708,103.975547 L448.523302,148.298398 Z" id="Stroke-17" stroke="#082674" stroke-width="2" fill-opacity="0.445199275" fill="#F6A623"></path>
                        <path d="M539.345905,152.276159 C539.064792,154.222075 540.428153,156.043602 542.375199,156.324551 L600.065549,164.639375 C602.012595,164.91961 603.835178,163.55704 604.115576,161.611124 L610.445978,117.742224 C610.726376,115.796308 609.36373,113.974782 607.416684,113.694547 L549.726334,105.379723 C547.779288,105.098774 545.956704,106.461344 545.676307,108.40726 L539.345905,152.276159 Z" id="Stroke-21" stroke="#082674" stroke-width="2" fill-opacity="0.445199275" fill="#F6A623"></path>
                        <path d="M618.055265,113.148804 C618.055265,114.673653 619.292018,115.910404 620.818467,115.910404 C622.344202,115.910404 623.580955,114.673653 623.580955,113.148804 C623.580955,111.623955 622.344202,110.387205 620.818467,110.387205 C619.292018,110.387205 618.055265,111.623955 618.055265,113.148804" id="Fill-23" fill="#FFFFFF"></path>
                        <path d="M618.055265,113.148804 C618.055265,114.673653 619.292018,115.910404 620.818467,115.910404 C622.344202,115.910404 623.580955,114.673653 623.580955,113.148804 C623.580955,111.623955 622.344202,110.387205 620.818467,110.387205 C619.292018,110.387205 618.055265,111.623955 618.055265,113.148804 Z" id="Stroke-25" stroke="#082674" stroke-width="2"></path>
                        <path d="M620.818181,108.901603 L620.818181,104.135466" id="Stroke-27" stroke="#082674" stroke-width="2"></path>
                        <path d="M618.425432,111.768219 C617.662207,113.088611 618.114992,114.777883 619.436866,115.539951 C620.758025,116.302732 622.448278,115.85021 623.210787,114.529818 C623.974012,113.208712 623.521227,111.520154 622.199353,110.757372 C620.878195,109.995305 619.188657,110.447827 618.425432,111.768219" id="Fill-29" fill="#FFFFFF"></path>
                        <path d="M618.425432,111.768219 C617.662207,113.088611 618.114992,114.777883 619.436866,115.539951 C620.758025,116.302732 622.448278,115.85021 623.210787,114.529818 C623.974012,113.208712 623.521227,111.520154 622.199353,110.757372 C620.878195,109.995305 619.188657,110.447827 618.425432,111.768219 Z" id="Stroke-31" stroke="#082674" stroke-width="2"></path>
                        <path d="M622.94305,109.470579 L625.327144,105.34355" id="Stroke-33" stroke="#082674" stroke-width="2"></path>
                        <path d="M624.49847,111.025239 L628.627895,108.642529" id="Stroke-35" stroke="#082674" stroke-width="2"></path>
                        <path d="M625.06792,113.148804 L629.836823,113.148804" id="Stroke-37" stroke="#082674" stroke-width="2"></path>
                        <path d="M624.49847,115.272441 L628.627895,117.655151" id="Stroke-39" stroke="#082674" stroke-width="2"></path>
                        <path d="M622.94305,116.827029 L625.327144,120.954058" id="Stroke-41" stroke="#082674" stroke-width="2"></path>
                        <path d="M620.818181,117.396077 L620.818181,122.162213" id="Stroke-43" stroke="#082674" stroke-width="2"></path>
                        <path d="M618.693312,116.827029 L616.309218,120.954058" id="Stroke-45" stroke="#082674" stroke-width="2"></path>
                        <path d="M617.137821,115.272441 L613.008396,117.655151" id="Stroke-47" stroke="#082674" stroke-width="2"></path>
                        <path d="M616.568443,113.148804 L611.79954,113.148804" id="Stroke-49" stroke="#082674" stroke-width="2"></path>
                        <path d="M617.137821,111.025239 L613.008396,108.642529" id="Stroke-51" stroke="#082674" stroke-width="2"></path>
                        <path d="M618.693312,109.470579 L616.309218,105.34355" id="Stroke-53" stroke="#082674" stroke-width="2"></path>
                        <g id="Group-58" transform="translate(451.638801, 103.943396)" stroke-width="2" stroke="#FFFFFF">
                            <polyline id="Stroke-57" points="9.33523312 0.239128931 0.513442114 0.239128931 0.513442114 5.9582065"></polyline>
                        </g>
                        <g id="Group-62" transform="translate(506.147476, 102.943396)">
                            <polyline id="Fill-59" fill="#FFFFFF" points="1.27481814 0.239128931 5.32842145 0.239128931 5.32842145 3.57549581"></polyline>
                            <polyline id="Stroke-61" stroke="#FFFFFF" stroke-width="2" points="0.274818139 1.23912893 4.32842145 1.23912893 4.32842145 4.57549581"></polyline>
                        </g>
                        <g id="Group-66" transform="translate(451.638801, 140.547170)" stroke-width="2" stroke="#FFFFFF">
                            <polyline id="Stroke-65" points="0.513227524 0.239128931 0.513227524 7.38797589 4.92448068 7.38797589"></polyline>
                        </g>
                        <path d="M567.068989,266.593228 C567.068989,266.593228 515.41863,253.021857 483.464047,265.169178" id="Stroke-67" stroke="#082674" stroke-width="2"></path>
                        <polygon id="Fill-69" fill="#000000" points="560.230438 230.29074 540.36442 238.193075 540.36442 235.076178 556.610306 228.851677 540.36442 222.641474 540.36442 219.527436 560.230438 227.412614"></polygon>
                        <polygon id="Stroke-71" stroke="#082674" stroke-width="2" points="560.230438 230.29074 540.36442 238.193075 540.36442 235.076178 556.610306 228.851677 540.36442 222.641474 540.36442 219.527436 560.230438 227.412614"></polygon>
                        <polygon id="Fill-73" fill="#000000" points="530.267607 237.865444 527.646749 237.865444 519.610357 212.547802 522.231215 212.547802"></polygon>
                        <polygon id="Stroke-75" stroke="#082674" stroke-width="2" points="530.267607 237.865444 527.646749 237.865444 519.610357 212.547802 522.231215 212.547802"></polygon>
                        <polygon id="Fill-77" fill="#000000" points="490.302884 227.412543 510.168902 219.527364 510.168902 222.641402 493.940183 228.851605 510.168902 235.078966 510.168902 238.193004 490.302884 230.324983"></polygon>
                        <polygon id="Stroke-79" stroke="#082674" stroke-width="2" points="490.302884 227.412543 510.168902 219.527364 510.168902 222.641402 493.940183 228.851605 510.168902 235.078966 510.168902 238.193004 490.302884 230.324983"></polygon>
                        <path d="M546.125658,253.207441 C546.125658,254.387001 545.160004,255.352095 543.979759,255.352095 L377.314933,255.352095 C376.134688,255.352095 375.169034,254.387001 375.169034,253.207441 L375.169034,185.88389 C375.169034,184.70433 376.134688,183.739236 377.314933,183.739236 L543.979759,183.739236 C545.160004,183.739236 546.125658,184.70433 546.125658,185.88389 L546.125658,253.207441 Z" id="Fill-81" fill="#FFFFFF"></path>
                        <path d="M546.125658,253.207441 C546.125658,254.387001 545.160004,255.352095 543.979759,255.352095 L377.314933,255.352095 C376.134688,255.352095 375.169034,254.387001 375.169034,253.207441 L375.169034,185.88389 C375.169034,184.70433 376.134688,183.739236 377.314933,183.739236 L543.979759,183.739236 C545.160004,183.739236 546.125658,184.70433 546.125658,185.88389 L546.125658,253.207441 Z" id="Stroke-83" stroke="#082674" stroke-width="2"></path>
                        <path d="M495.697031,326.941435 C495.697031,328.120995 494.731376,329.086089 493.551131,329.086089 L427.74356,329.086089 C426.563316,329.086089 425.597661,328.120995 425.597661,326.941435 L425.597661,257.496821 C425.597661,256.317261 426.563316,255.352167 427.74356,255.352167 L493.551131,255.352167 C494.731376,255.352167 495.697031,256.317261 495.697031,257.496821 L495.697031,326.941435 Z" id="Fill-85" fill="#FFFFFF"></path>
                        <path d="M495.697031,326.941435 C495.697031,328.120995 494.731376,329.086089 493.551131,329.086089 L427.74356,329.086089 C426.563316,329.086089 425.597661,328.120995 425.597661,326.941435 L425.597661,257.496821 C425.597661,256.317261 426.563316,255.352167 427.74356,255.352167 L493.551131,255.352167 C494.731376,255.352167 495.697031,256.317261 495.697031,257.496821 L495.697031,326.941435 Z" id="Stroke-87" stroke="#082674" stroke-width="2"></path>
                        <path d="M453.136699,183.739164 C453.136699,183.739164 456.997887,155.549831 483.463975,156.9796" id="Stroke-89" stroke="#082674" stroke-width="2"></path>
                        <path d="M492.730039,156.926842 C492.730039,163.244278 487.606347,168.364997 481.285244,168.364997 C474.964141,168.364997 469.840449,163.244278 469.840449,156.926842 C469.840449,150.609406 474.964141,145.488687 481.285244,145.488687 C487.606347,145.488687 492.730039,150.609406 492.730039,156.926842" id="Fill-91" fill="#FFFFFF"></path>
                        <path d="M492.730039,156.926842 C492.730039,163.244278 487.606347,168.364997 481.285244,168.364997 C474.964141,168.364997 469.840449,163.244278 469.840449,156.926842 C469.840449,150.609406 474.964141,145.488687 481.285244,145.488687 C487.606347,145.488687 492.730039,150.609406 492.730039,156.926842 Z" id="Stroke-93" stroke="#082674" stroke-width="2"></path>
                        <path d="M528.00208,161.871939 C528.00208,164.562765 526.658747,166.743878 525.001397,166.743878 C523.344048,166.743878 522,164.562765 522,161.871939 C522,159.181113 523.344048,157 525.001397,157 C526.658747,157 528.00208,159.181113 528.00208,161.871939 Z" id="Stroke-95" stroke="#082674" stroke-width="2"></path>
                        <path d="M563.00208,133.871939 C563.00208,136.562765 561.658747,138.743878 560.001397,138.743878 C558.344048,138.743878 557,136.562765 557,133.871939 C557,131.181113 558.344048,129 560.001397,129 C561.658747,129 563.00208,131.181113 563.00208,133.871939 Z" id="Stroke-95-Copy-2" stroke="#082674" stroke-width="2"></path>
                        <path d="M498.213812,127.871939 C498.213812,130.562765 496.87048,132.743878 495.21313,132.743878 C493.555781,132.743878 492.211733,130.562765 492.211733,127.871939 C492.211733,125.181113 493.555781,123 495.21313,123 C496.87048,123 498.213812,125.181113 498.213812,127.871939 Z" id="Stroke-95-Copy-3" stroke="#082674" stroke-width="2"></path>
                        <polygon id="Fill-97" fill="#FFFFFF" points="455.563067 247.961617 427.879539 220.29415 455.563067 192.625967 483.246596 220.29415"></polygon>
                        <polygon id="Stroke-99" stroke="#082674" stroke-width="2" points="455.563067 247.961617 427.879539 220.29415 455.563067 192.625967 483.246596 220.29415"></polygon>
                        <g id="Group-104" transform="translate(447.062303, 198.737945)">
                            <polyline id="Fill-101" fill="#FFFFFF" points="0.232758517 8.55716981 8.50090757 0.216610063 24.5529478 17.3738428"></polyline>
                            <polyline id="Stroke-103" stroke="#082674" stroke-width="2" points="0.232758517 8.55716981 8.50090757 0.216610063 24.5529478 17.3738428"></polyline>
                        </g>
                        <polygon id="Fill-105" fill="#FFFFFF" points="455.563067 192.626039 460.409223 192.626039 487.590611 220.293506 459.974321 247.961689 455.563067 247.961689 483.246596 220.293506"></polygon>
                        <polygon id="Stroke-107" stroke="#082674" stroke-width="2" points="455.563067 192.626039 460.409223 192.626039 487.590611 220.293506 459.974321 247.961689 455.563067 247.961689 483.246596 220.293506"></polygon>
                        <path d="M478.988631,148.935146 C478.988631,148.935146 487.393403,148.04297 489.360477,157.138448" id="Stroke-109" stroke="#082674" stroke-width="2"></path>
                        <path d="M378.409913,327.908031 C379.842659,331.56967 377.796186,334.565752 373.862038,334.565752 L5.72089535,334.565752 C1.78674708,334.565752 -0.259725315,331.56967 1.17301995,327.908031 L31.7277613,249.808307 C33.1605065,246.145953 37.5517313,243.149871 41.4858796,243.149871 L338.097054,243.149871 C342.031202,243.149871 346.421712,246.145953 347.854457,249.808307 L378.409913,327.908031 Z" id="Fill-111" fill="#FFFFFF"></path>
                        <path d="M378.409913,327.908031 C379.842659,331.56967 377.796186,334.565752 373.862038,334.565752 L5.72089535,334.565752 C1.78674708,334.565752 -0.259725315,331.56967 1.17301995,327.908031 L31.7277613,249.808307 C33.1605065,246.145953 37.5517313,243.149871 41.4858796,243.149871 L338.097054,243.149871 C342.031202,243.149871 346.421712,246.145953 347.854457,249.808307 L378.409913,327.908031 Z" id="Stroke-113" stroke="#082674" stroke-width="2"></path>
                        <path d="M294.168855,9.39408532 C294.168855,10.9189344 292.932102,12.1556849 291.405652,12.1556849 C289.879918,12.1556849 288.643165,10.9189344 288.643165,9.39408532 C288.643165,7.86923627 289.879918,6.63248574 291.405652,6.63248574 C292.932102,6.63248574 294.168855,7.86923627 294.168855,9.39408532 Z" id="Stroke-115" stroke="#082674" stroke-width="2"></path>
                        <g id="Group-119" transform="translate(291.126972, 0.000000)">
                            <mask id="mask-2" fill="white">
                                <use xlink:href="#path-1"></use>
                            </mask>
                            <g id="Clip-118"></g>
                            <path d="M0.278966877,5.14681237 L0.278966877,0.380676101" id="Stroke-117" stroke="#082674" mask="url(#mask-2)"></path>
                        </g>
                        <path d="M293.798687,8.01342851 C294.561912,9.33382055 294.109128,11.0230931 292.787254,11.7851602 C291.466095,12.5479421 289.775842,12.0954201 289.013333,10.7750281 C288.250108,9.45392117 288.702893,7.76536352 290.024766,7.00258155 C291.345925,6.24051447 293.035463,6.69303648 293.798687,8.01342851 Z" id="Stroke-120" stroke="#082674" stroke-width="2"></path>
                        <path d="M289.281141,5.71586059 L286.897047,1.58883124" id="Stroke-122" stroke="#082674"></path>
                        <path d="M287.725579,7.27044885 L283.596153,4.88773816" id="Stroke-124" stroke="#082674"></path>
                        <path d="M287.156272,9.39408532 L282.387369,9.39408532" id="Stroke-126" stroke="#082674" stroke-width="2"></path>
                        <path d="M287.725579,11.5176503 L283.596153,13.900361" id="Stroke-128" stroke="#082674" stroke-width="2"></path>
                        <path d="M289.281141,13.0723101 L286.897047,17.1993394" id="Stroke-130" stroke="#082674" stroke-width="2"></path>
                        <path d="M291.405938,13.6412868 L291.405938,18.4074231" id="Stroke-132" stroke="#082674" stroke-width="2"></path>
                        <path d="M293.530808,13.0723101 L295.914902,17.1993394" id="Stroke-134" stroke="#082674" stroke-width="2"></path>
                        <path d="M295.086298,11.5176503 L299.215724,13.900361" id="Stroke-136" stroke="#082674" stroke-width="2"></path>
                        <path d="M295.655677,9.39408532 L300.42458,9.39408532" id="Stroke-138" stroke="#082674" stroke-width="2"></path>
                        <path d="M295.086298,7.27044885 L299.215724,4.88773816" id="Stroke-140" stroke="#082674"></path>
                        <path d="M293.530808,5.71586059 L295.914902,1.58883124" id="Stroke-142" stroke="#082674"></path>
                        <path d="M162.348565,256.561037 C162.348565,256.561037 213.998925,242.989666 245.953508,255.136986" id="Stroke-144" stroke="#082674" stroke-width="2"></path>
                        <polygon id="Stroke-146" stroke="#082674" stroke-width="2" points="17.3760599 222.111172 20.1972019 216.72809 22.739377 225.725629 27.7178628 216.226956 38.6555103 238.497044 27.4067074 224.335893 22.1792973 234.309965"></polygon>
                        <path d="M53.9134963,283.815801 C60.5550539,283.815801 65.9391146,278.434864 65.9391146,271.79716 L65.9391146,255.131053 L41.887878,255.131053 L41.887878,271.79716 C41.887878,278.434864 47.2719387,283.815801 53.9134963,283.815801" id="Fill-148" fill="#FFFFFF"></path>
                        <path d="M53.9134963,283.815801 C60.5550539,283.815801 65.9391146,278.434864 65.9391146,271.79716 L65.9391146,255.131053 L41.887878,255.131053 L41.887878,271.79716 C41.887878,278.434864 47.2719387,283.815801 53.9134963,283.815801 Z" id="Stroke-150" stroke="#082674" stroke-width="2"></path>
                        <g id="Group-155" transform="translate(53.647476, 269.511530)">
                            <path d="M0.266019953,0.655334801 L0.266019953,10.6637205" id="Fill-152" fill="#FFFFFF"></path>
                            <path d="M0.266019953,0.655334801 L0.266019953,10.6637205" id="Stroke-154" stroke="#082674" stroke-width="2"></path>
                        </g>
                        <path d="M116.049005,104.469818 C115.97676,104.469103 115.903084,104.45695 115.831554,104.459095 C112.991814,104.539162 113.764338,104.524149 116.049005,104.469818 Z" id="Stroke-162" stroke="#082674" stroke-width="2"></path>
                        <path d="M239.822316,75.674334 C258.679762,75.7508266 266.608144,57.9752187 266.608144,57.9752187 C254.691251,53.9968853 256.819983,34.7636275 235.263711,27.2616275 C170.926797,2.05479308 160.19301,58.4155876 160.19301,58.4155876 C155.806792,58.5750069 153.750305,54.3343109 153.750305,54.3343109 C152.290379,56.9929671 156.35042,63.2567868 156.35042,63.2567868 C143.220379,63.6385352 140.965039,35.7172836 140.965039,35.7172836 C119.121932,52.498487 127.686931,83.8840698 127.686931,83.8840698 L115.775045,76.6530111 L131.164718,104.09243 C131.164718,104.09243 120.601172,104.361227 116.049005,104.46989 C122.126191,104.557105 130.462293,115.397617 134.72691,121.584229" id="Stroke-164" stroke="#082674" stroke-width="2"></path>
                        <path d="M210.851249,154.230869 C210.851249,154.230869 209.238248,148.85994 212.233923,147.966334 C215.228883,147.072728 216.722428,150.738657 217.294668,151.966114 L198.548094,160.147254" id="Stroke-166" stroke="#082674" stroke-width="2"></path>
                        <path d="M181.960223,123.077981 C181.960223,123.077981 190.112493,107.388406 207.560083,108.69736 L208.875519,112.007276 C191.427929,110.698322 183.840746,126.02831 183.840746,126.02831 L181.960223,123.077981 Z" id="Fill-168" fill="#FFFFFF"></path>
                        <path d="M181.960223,123.077981 C181.960223,123.077981 190.112493,107.388406 207.560083,108.69736 L208.875519,112.007276 C191.427929,110.698322 183.840746,126.02831 183.840746,126.02831 L181.960223,123.077981 Z" id="Stroke-170" stroke="#082674" stroke-width="2"></path>
                        <path d="M219.265247,69.5187478 C185.468768,50.68797 187.636841,60.4811755 184.51885,61.3883642 C184.51885,61.3883642 206.638062,66.8643809 214.399063,77.6362635 C214.399063,77.6362635 191.311335,69.4637017 184.787087,71.3617205 C184.787087,71.3617205 160.321692,84.558492 170.321582,112.488322 C170.321582,112.488322 144.689533,98.6667415 148.426974,89.7614229 C148.426974,89.7614229 132.227582,111.003507 137.483604,125.780888 C137.483604,125.780888 136.429252,124.053727 134.726839,121.584515 C135.057307,125.577146 135.790489,129.596228 136.954282,133.592433 C146.314694,165.718637 179.961675,184.179104 212.107243,174.824123 C244.252096,165.469857 262.723279,131.842396 253.363583,99.7154774 C250.664042,90.4512866 245.942349,82.326622 239.822245,75.6746199 C234.029748,75.6510287 227.20722,73.9438841 219.265247,69.5187478 Z" id="Stroke-160" stroke="#0A2674" stroke-width="2"></path>
                        <polygon id="Stroke-174" stroke="#082674" stroke-width="2" fill-opacity="0.448312953" fill="#F6A623" points="255.179443 72.7039881 256.401175 76.8975017 260.979808 75.5649566 261.779513 78.3108287 266.884607 76.8252983 276.860176 111.063986 272.018313 112.473024 272.975384 115.756489 268.13352 117.165527 269.543376 122.003866 226.047433 134.661615 224.7041 130.052038 220.812154 131.184416 219.789276 127.672187 213.935978 129.375757 203.760125 94.4507805 209.613422 92.7472103 208.813717 90.002053 212.705663 88.8689608 211.6835 85.3617365"></polygon>
                        <g id="Group-179" transform="translate(248.924290, 75.777778)" stroke="#FFFFFF">
                            <path d="M0.467090694,0.926133124 C0.467090694,0.926133124 1.21386356,0.708808176 2.12658596,0.442871069 C3.03930836,0.177648847 4.05646451,0.886814465 4.38621767,2.01919182 L5.25316088,4.99382704" id="Stroke-178"></path>
                        </g>
                        <g id="Group-183" transform="translate(261.799685, 80.067086)" stroke="#FFFFFF">
                            <path d="M0.0743196372,0.698156394 C0.0743196372,0.698156394 0.846843297,0.472967715 1.79103888,0.198451992 C2.73523446,-0.0760637317 3.76168951,0.568047379 4.07141427,1.63108092 C4.38042374,2.69339958 4.63435513,3.56269937 4.63435513,3.56269937" id="Stroke-182"></path>
                        </g>
                        <g id="Group-187" transform="translate(266.091483, 109.377358)" stroke="#FFFFFF">
                            <path d="M0.249425,6.32394151 C0.249425,6.32394151 1.17645339,6.05442998 2.30948809,5.72415325 C3.44323809,5.3945914 4.0998832,4.19787442 3.77013005,3.06549706 L2.9804392,0.354654298" id="Stroke-186"></path>
                        </g>
                        <g id="Group-191" transform="translate(213.874606, 120.100629)" stroke="#FFFFFF">
                            <path d="M0.662081388,0.624666247 L1.52830931,3.59930147 C1.85877776,4.73167883 3.05547413,5.38794298 4.18922413,5.05838113 L6.70707902,4.32562432 C7.84011372,3.99606247 8.99246151,4.49862642 9.26713659,5.44227421 C9.54252697,6.38592201 9.76713107,7.15799748 9.76713107,7.15799748" id="Stroke-190"></path>
                        </g>
                        <polygon id="Stroke-194" stroke="#082674" stroke-width="2" fill-opacity="0.448312953" fill="#F6A623" points="159.999807 105.404315 162.095635 109.237527 166.280138 106.952041 167.652083 109.461286 172.317983 106.913437 189.427236 138.2068 185.002392 140.623825 186.642574 143.624196 182.217731 146.041221 184.635444 150.463498 144.881233 172.173831 142.577253 167.960301 139.020067 169.902642 137.265437 166.69281 131.915711 169.614544 114.463114 137.693512 119.81284 134.771779 118.440895 132.262533 121.998081 130.320192 120.245597 127.114649"></polygon>
                        <g id="Group-199" transform="translate(154.504732, 109.377358)" stroke="#FFFFFF">
                            <path d="M0.70321112,1.17727212 C0.70321112,1.17727212 1.38560702,0.804817191 2.22036175,0.348720755 C3.05440118,-0.106660797 4.20031128,0.367307757 4.76611333,1.4024608 L6.25250607,4.1211673" id="Stroke-198"></path>
                        </g>
                        <g id="Group-203" transform="translate(179.540221, 137.972746)" stroke="#FFFFFF">
                            <path d="M0.61193888,7.0239566 L2.49532295,5.99523753 C3.53107689,5.42976373 3.91519282,4.12009497 3.34939077,3.08494193 L1.99461317,0.607151572" id="Stroke-202"></path>
                        </g>
                        <g id="Group-207" transform="translate(130.184543, 160.849057)" stroke="#FFFFFF">
                            <path d="M0.456432729,0.188157652 L1.94282547,2.90686415 C2.50862752,3.94201719 3.81905655,4.32591027 4.85481049,3.76043648 L7.15664487,2.50366918 C8.19239882,1.9374805 9.42557547,2.1805413 9.89695797,3.04340713 C10.3683405,3.90627296 10.7546023,4.61186415 10.7546023,4.61186415" id="Stroke-206"></path>
                        </g>
                        <g id="Group-159" transform="translate(168.095426, 110.092243)" stroke="#FFFFFF">
                            <polyline id="Stroke-158" points="0.176893612 1.7458914 3.31562863 0.0315979036 5.24622248 3.56384319"></polyline>
                        </g>
                        <path d="M303.976472,288.375193 C303.976472,292.307059 300.757624,295.52404 296.823475,295.52404 L111.478597,295.52404 C107.544449,295.52404 104.325601,292.307059 104.325601,288.375193 L104.325601,170.862447 C104.325601,166.930581 107.544449,163.7136 111.478597,163.7136 L296.823475,163.7136 C300.757624,163.7136 303.976472,166.930581 303.976472,170.862447 L303.976472,288.375193 Z" id="Fill-208" fill="#FFFFFF"></path>
                        <path d="M303.976472,288.375193 C303.976472,292.307059 300.757624,295.52404 296.823475,295.52404 L111.478597,295.52404 C107.544449,295.52404 104.325601,292.307059 104.325601,288.375193 L104.325601,170.862447 C104.325601,166.930581 107.544449,163.7136 111.478597,163.7136 L296.823475,163.7136 C300.757624,163.7136 303.976472,166.930581 303.976472,170.862447 L303.976472,288.375193 Z" id="Stroke-210" stroke="#082674" stroke-width="2"></path>
                        <path d="M53.9134963,283.815801 C53.9134963,283.815801 60.5729364,319.314831 80.356695,319.314831 C100.140454,319.314831 82.4961564,299.774887 92.0339624,299.298059 C101.571053,298.821946 111.585249,296.915348 112.062354,308.353504 C112.538743,319.791659 122.076549,321.698256 123.983538,321.698256 C125.891242,321.698256 147.789427,315.578843 130.640832,295.524183" id="Stroke-212" stroke="#082674" stroke-width="2"></path>
                        <path d="M56.5015936,247.446471 L104.3251,218.989056 L104.3251,236.746077 L70.0200424,260.490972 C70.0200424,260.490972 64.9306851,249.834186 56.7455108,250.083681 L56.5015936,247.446471 Z" id="Fill-214" fill="#FFFFFF"></path>
                        <path d="M56.5015936,247.446471 L104.3251,218.989056 L104.3251,236.746077 L70.0200424,260.490972 C70.0200424,260.490972 64.9306851,249.834186 56.7455108,250.083681 L56.5015936,247.446471 Z" id="Stroke-216" stroke="#082674" stroke-width="2"></path>
                        <g id="Group-221" transform="translate(55.793375, 269.511530)">
                            <path d="M0.708218218,0.655334801 L6.91272768,0.655334801" id="Fill-218" fill="#FFFFFF"></path>
                            <path d="M0.708218218,0.655334801 L6.91272768,0.655334801" id="Stroke-220" stroke="#082674" stroke-width="2"></path>
                        </g>
                        <g id="Group-225" transform="translate(42.917981, 269.511530)">
                            <path d="M0.231327918,0.655334801 L6.43655268,0.655334801" id="Fill-222" fill="#FFFFFF"></path>
                            <path d="M0.231327918,0.655334801 L6.43655268,0.655334801" id="Stroke-224" stroke="#082674" stroke-width="2"></path>
                        </g>
                        <path d="M42.9164789,255.80955 L41.0087747,261.051799 C36.5488812,276.138726 43.701878,275.877078 43.8699734,272.847397 C44.4665334,262.124126 49.5923709,256.560894 49.5923709,256.560894 C49.5923709,256.560894 58.5779655,250.862548 64.3683165,263.911338 C66.8546982,269.515319 71.2452076,265.569871 71.0513614,263.911338 C70.4462179,258.72056 64.994919,253.432558 62.3490255,251.758298 C60.5986871,250.651657 56.7453677,250.084038 56.7453677,250.084038 C56.7453677,240.902774 48.1059782,235.31595 48.1059782,235.31595 C43.4014521,232.813854 43.8699734,238.532931 43.8699734,238.532931 C50.6653204,241.749913 52.3426982,250.084038 52.3426982,250.084038 C52.3426982,250.084038 39.5781753,249.256202 37.2534513,260.158194 C34.9287274,271.060185 41.6575515,260.002349 42.9164789,255.80955" id="Fill-226" fill="#FFFFFF"></path>
                        <path d="M42.9164789,255.80955 L41.0087747,261.051799 C36.5488812,276.138726 43.701878,275.877078 43.8699734,272.847397 C44.4665334,262.124126 49.5923709,256.560894 49.5923709,256.560894 C49.5923709,256.560894 58.5779655,250.862548 64.3683165,263.911338 C66.8546982,269.515319 71.2452076,265.569871 71.0513614,263.911338 C70.4462179,258.72056 64.994919,253.432558 62.3490255,251.758298 C60.5986871,250.651657 56.7453677,250.084038 56.7453677,250.084038 C56.7453677,240.902774 48.1059782,235.31595 48.1059782,235.31595 C43.4014521,232.813854 43.8699734,238.532931 43.8699734,238.532931 C50.6653204,241.749913 52.3426982,250.084038 52.3426982,250.084038 C52.3426982,250.084038 39.5781753,249.256202 37.2534513,260.158194 C34.9287274,271.060185 41.6575515,260.002349 42.9164789,255.80955 Z" id="Stroke-228" stroke="#082674" stroke-width="2"></path>
                        <g id="Group-233" transform="translate(276.820978, 167.997904)">
                            <path d="M0.0392699527,0.476613627 L18.3580949,0.476613627 C18.3580949,0.476613627 23.6033875,0.167783438 23.6033875,9.25825723" id="Fill-230" fill="#FFFFFF"></path>
                            <path d="M0.0392699527,0.476613627 L18.3580949,0.476613627 C18.3580949,0.476613627 23.6033875,0.167783438 23.6033875,9.25825723" id="Stroke-232" stroke="#082674" stroke-width="2"></path>
                        </g>
                        <g id="Group-237" transform="translate(299.710568, 183.010482)">
                            <path d="M0.713797555,0 L0.713797555,6.91079036" id="Fill-234" fill="#FFFFFF"></path>
                            <path d="M0.713797555,0 L0.713797555,6.91079036" id="Stroke-236" stroke="#082674" stroke-width="2"></path>
                        </g>
                        <g id="Group-241" transform="translate(109.440852, 167.997904)">
                            <path d="M13.8276013,0.475326834 L5.46002555,0.476756604 C5.46002555,0.476756604 0.214732965,0.16721153 0.214732965,9.25840021" id="Fill-238" fill="#FFFFFF"></path>
                            <path d="M13.8276013,0.475326834 L5.46002555,0.476756604 C5.46002555,0.476756604 0.214732965,0.16721153 0.214732965,9.25840021" id="Stroke-240" stroke="#082674" stroke-width="2"></path>
                        </g>
                        <g id="Group-245" transform="translate(109.440852, 180.150943)">
                            <path d="M0.214518375,0.476613627 L0.214518375,28.9847855" id="Fill-242" fill="#FFFFFF"></path>
                            <path d="M0.214518375,0.476613627 L0.214518375,28.9847855" id="Stroke-244" stroke="#082674" stroke-width="2"></path>
                        </g>
                        <path d="M282.387583,20.7728335 C282.387583,20.7728335 268.079444,29.5487581 266.608072,40.033257" id="Stroke-246" stroke="#082674" stroke-width="2"></path>
                        <polygon id="Fill-248" fill="#FFFFFF" points="109.655442 299.140642 299.232032 299.140642 299.232032 295.52404 109.655442 295.52404"></polygon>
                        <polygon id="Stroke-250" stroke="#082674" stroke-width="2" points="109.655442 299.140642 299.232032 299.140642 299.232032 295.52404 109.655442 295.52404"></polygon>
                        <path d="M376.246132,338.140461 C376.246132,339.320021 375.280477,340.285115 374.100233,340.285115 L6.43619503,340.285115 C5.25595055,340.285115 4.29029598,339.320021 4.29029598,338.140461 L4.29029598,336.710692 C4.29029598,335.531132 5.25595055,334.566038 6.43619503,334.566038 L374.100233,334.566038 C375.280477,334.566038 376.246132,335.531132 376.246132,336.710692 L376.246132,338.140461 Z" id="Fill-251" fill="#FFFFFF"></path>
                        <path d="M376.246132,338.140461 C376.246132,339.320021 375.280477,340.285115 374.100233,340.285115 L6.43619503,340.285115 C5.25595055,340.285115 4.29029598,339.320021 4.29029598,338.140461 L4.29029598,336.710692 C4.29029598,335.531132 5.25595055,334.566038 6.43619503,334.566038 L374.100233,334.566038 C375.280477,334.566038 376.246132,335.531132 376.246132,336.710692 L376.246132,338.140461 Z" id="Stroke-252" stroke="#082674" stroke-width="2"></path>
                        <polygon id="Fill-253" fill="#FFFFFF" points="202.84025 242.995456 186.132995 226.297894 202.84025 209.601047 219.547504 226.297894"></polygon>
                        <polygon id="Stroke-254" stroke="#082674" stroke-width="2" points="202.84025 242.995456 186.132995 226.297894 202.84025 209.601047 219.547504 226.297894"></polygon>
                        <g id="Group-257" transform="translate(197.422713, 213.035639)">
                            <polyline id="Fill-255" fill="#FFFFFF" points="0.427963801 5.41796813 5.4178944 0.38446499 15.105198 10.7388549"></polyline>
                            <polyline id="Stroke-256" stroke="#082674" stroke-width="2" points="0.427963801 5.41796813 5.4178944 0.38446499 15.105198 10.7388549"></polyline>
                        </g>
                        <path d="M828.377549,123.358573 C828.377549,156.819466 801.236218,183.945051 767.755901,183.945051 C734.275584,183.945051 707.134253,156.819466 707.134253,123.358573 C707.134253,89.8976799 734.275584,62.772095 767.755901,62.772095 C801.236218,62.772095 828.377549,89.8976799 828.377549,123.358573 Z" id="Stroke-258" stroke="#082674" stroke-width="2"></path>
                        <path d="M755.337511,128.819434 C755.337511,148.286459 739.547271,164.067539 720.068945,164.067539 C700.591335,164.067539 684.801094,148.286459 684.801094,128.819434 C684.801094,109.352409 700.591335,93.5713294 720.068945,93.5713294 C739.547271,93.5713294 755.337511,109.352409 755.337511,128.819434 Z" id="Stroke-260" stroke="#082674" stroke-width="2" fill-opacity="0.449020607" fill="#F6A623"></path>
                        <path d="M854.187994,138.82782 C854.187994,158.294845 838.397753,174.075925 818.919427,174.075925 C799.441817,174.075925 783.651576,158.294845 783.651576,138.82782 C783.651576,119.360795 799.441817,103.579715 818.919427,103.579715 C838.397753,103.579715 854.187994,119.360795 854.187994,138.82782 Z" id="Stroke-262" stroke="#082674" stroke-width="2" fill-opacity="0.449020607" fill="#F6A623"></path>
                        <polygon id="Stroke-263" stroke="#082674" stroke-width="2" points="768.391731 200.646545 758.456933 207.754643 768.391731 215.201597 778.048276 207.924071"></polygon>
                        <polygon id="Stroke-264" stroke="#082674" stroke-width="2" points="768.391731 215.201383 763.622828 247.54777 768.232934 267.901968 772.882382 248.0439"></polygon>
                        <path d="M768.411616,296.122327 L764.634118,311.515939 C764.165597,313.425396 762.172772,314.987419 760.205698,314.987419 L728.116639,314.987419 C726.149565,314.987419 724.612386,313.380358 724.700368,311.41657 L728.353403,230.190656 C728.441385,228.226868 728.08302,228.169677 727.556559,230.063406 L724.50366,241.04761 C723.9772,242.942054 721.937165,244.491924 719.970091,244.491924 L705.763524,244.491924 C703.79645,244.491924 702.979577,243.09218 703.948808,241.381461 L729.537224,196.202893 C730.506455,194.492174 732.850492,193.52136 734.746036,194.045371 C734.746036,194.045371 754.559122,199.526392 804.8919,192.165939 L832.869416,241.383606 C833.841509,243.092895 833.026782,244.491924 831.059708,244.491924 L816.853141,244.491924 C814.886067,244.491924 812.846032,242.942054 812.319572,241.04761 L809.266673,230.063406 C808.740212,228.169677 808.381847,228.226868 808.469829,230.190656 L812.122864,311.41657 C812.210846,313.380358 810.673667,314.987419 808.706593,314.987419 L776.617534,314.987419 C774.65046,314.987419 772.657635,313.425396 772.189114,311.515939 L768.411616,296.122327" id="Stroke-265" stroke="#082674" stroke-width="2"></path>
                        <path d="M736.163546,317.86676 C734.196472,317.86676 730.977623,317.890351 729.011264,317.919662 C729.011264,317.919662 716.373349,318.104817 715.419855,332.402511 L753.092543,332.402511 C755.059618,332.402511 756.669042,330.79402 756.669042,328.828087 L756.669042,321.441184 C756.669042,319.475251 755.059618,317.86676 753.092543,317.86676 L736.163546,317.86676 Z" id="Stroke-266" stroke="#082674" stroke-width="2"></path>
                        <path d="M801.971117,317.86676 C803.938191,317.86676 807.157039,317.890351 809.124114,317.919662 C809.124114,317.919662 821.761313,318.104817 822.714808,332.402511 L785.042119,332.402511 C783.075045,332.402511 781.465621,330.79402 781.465621,328.828087 L781.465621,321.441184 C781.465621,319.475251 783.075045,317.86676 785.042119,317.86676 L801.971117,317.86676 Z" id="Stroke-267" stroke="#082674" stroke-width="2"></path>
                        <path d="M755.337511,128.819434 C755.337511,128.819434 770.647071,119.962728 784.659791,130.433644 L783.990271,133.93229 C769.97755,123.461373 755.337511,132.317365 755.337511,132.317365 L755.337511,128.819434 Z" id="Fill-268" fill="#FFFFFF"></path>
                        <path d="M755.337511,128.819434 C755.337511,128.819434 770.647071,119.962728 784.659791,130.433644 L783.990271,133.93229 C769.97755,123.461373 755.337511,132.317365 755.337511,132.317365 L755.337511,128.819434 Z" id="Stroke-269" stroke="#082674" stroke-width="2"></path>
                        <path d="M760.722144,159.996342 C760.722144,159.996342 768.590441,162.855881 776.458737,159.996342" id="Stroke-270" stroke="#082674" stroke-width="2"></path>
                        <path d="M817.307786,140.229852 C817.307786,140.229852 811.605417,138.116653 812.081806,145.249772 C812.558911,152.382892 829.487909,146.901871 821.142507,136.1786 C812.797106,125.45533 803.02182,134.272718 806.836514,146.663814 C810.651207,159.05491 831.394898,157.605839 829.964298,137.599076 C828.533699,117.591598 796.822318,120.238816 801.591221,142.982873 C806.359409,165.727644 847.370401,166.680586 839.263194,130.459523" id="Stroke-271" stroke="#0A2674" stroke-width="2"></path>
                        <path d="M720.875946,129.582145 C720.875946,129.582145 726.578315,127.468945 726.101926,134.602065 C725.624821,141.735184 708.695823,136.254164 717.041225,125.530893 C725.386626,114.807623 735.161912,123.62501 731.347218,136.016107 C727.532525,148.407203 706.788834,146.958132 708.219434,126.951369 C709.650033,106.943891 741.361414,109.591109 736.592511,132.335166 C731.824323,155.079937 690.813331,156.032878 698.920538,119.811816" id="Stroke-272" stroke="#0A2674" stroke-width="2"></path>
                        <path d="M886.119901,234.407975 C885.717188,232.483506 883.778726,230.90933 881.811651,230.90933 L662.214648,230.90933 C660.247574,230.90933 658.309112,232.483506 657.906398,234.407975 L645.063908,295.818 C644.661194,297.74247 644.332156,300.925852 644.332156,302.891784 L644.332156,304.321554 C644.332156,306.287487 645.941581,307.895977 647.908655,307.895977 L896.117645,307.895977 C898.084719,307.895977 899.694144,306.287487 899.694144,304.321554 L899.694144,302.891784 C899.694144,300.925852 899.365106,297.74247 898.962392,295.818 L886.119901,234.407975 Z" id="Fill-273" fill="#FFFFFF"></path>
                        <path d="M886.119901,234.407975 C885.717188,232.483506 883.778726,230.90933 881.811651,230.90933 L662.214648,230.90933 C660.247574,230.90933 658.309112,232.483506 657.906398,234.407975 L645.063908,295.818 C644.661194,297.74247 644.332156,300.925852 644.332156,302.891784 L644.332156,304.321554 C644.332156,306.287487 645.941581,307.895977 647.908655,307.895977 L896.117645,307.895977 C898.084719,307.895977 899.694144,306.287487 899.694144,304.321554 L899.694144,302.891784 C899.694144,300.925852 899.365106,297.74247 898.962392,295.818 L886.119901,234.407975 Z" id="Stroke-274" stroke="#082674" stroke-width="2"></path>
                        <path d="M649.339326,298.959561 L893.614168,298.959561" id="Stroke-275" stroke="#082674" stroke-width="2"></path>
                        <path d="M698.546078,192.018458 C698.169831,190.088984 699.471676,188.476205 701.438035,188.435456 L763.271401,187.14366 C765.23776,187.102196 768.454462,187.150808 770.418675,187.250892 L832.818559,190.434989 C834.782772,190.535787 836.236261,192.218626 836.048852,194.17598 L828.527476,272.535207 C828.339352,274.492561 826.576138,276.071026 824.609779,276.043861 L761.234227,275.157404 C759.267869,275.129523 756.054742,275.241045 754.094106,275.404754 L718.983621,278.339356 C717.0237,278.503064 715.112419,277.058282 714.736171,275.128094 L698.546078,192.018458 Z" id="Fill-276" fill="#FFFFFF"></path>
                        <path d="M698.546078,192.018458 C698.169831,190.088984 699.471676,188.476205 701.438035,188.435456 L763.271401,187.14366 C765.23776,187.102196 768.454462,187.150808 770.418675,187.250892 L832.818559,190.434989 C834.782772,190.535787 836.236261,192.218626 836.048852,194.17598 L828.527476,272.535207 C828.339352,274.492561 826.576138,276.071026 824.609779,276.043861 L761.234227,275.157404 C759.267869,275.129523 756.054742,275.241045 754.094106,275.404754 L718.983621,278.339356 C717.0237,278.503064 715.112419,277.058282 714.736171,275.128094 L698.546078,192.018458 Z" id="Stroke-277" stroke="#082674" stroke-width="2"></path>
                        <path d="M702.683229,182.589558 C705.563741,183.315166 756.97519,181.073288 756.97519,181.073288 C758.940118,180.987501 760.603905,182.525218 760.671859,184.489722 L763.499438,266.268242 C763.567392,268.232745 765.057361,269.765457 766.810561,269.673952 C768.56376,269.582447 769.957879,267.899608 769.908524,265.93439 L767.846315,184.490436 C767.796244,182.525218 769.363465,180.990361 771.328394,181.079007 L828.137494,183.651162 C830.103138,183.739808 831.648901,185.419787 831.574509,187.38429 L828.322042,272.522053 C828.246935,274.486556 826.576711,276.07074 824.609636,276.043575 L767.198968,275.240759 C765.23261,275.212879 762.018053,275.305099 760.055986,275.445931 L718.987054,278.381963 C717.024987,278.52208 715.208126,277.042269 714.949903,275.093493 L702.683229,182.589558 Z" id="Fill-278" fill="#FFFFFF"></path>
                        <path d="M702.683229,182.589558 C705.563741,183.315166 756.97519,181.073288 756.97519,181.073288 C758.940118,180.987501 760.603905,182.525218 760.671859,184.489722 L763.499438,266.268242 C763.567392,268.232745 765.057361,269.765457 766.810561,269.673952 C768.56376,269.582447 769.957879,267.899608 769.908524,265.93439 L767.846315,184.490436 C767.796244,182.525218 769.363465,180.990361 771.328394,181.079007 L828.137494,183.651162 C830.103138,183.739808 831.648901,185.419787 831.574509,187.38429 L828.322042,272.522053 C828.246935,274.486556 826.576711,276.07074 824.609636,276.043575 L767.198968,275.240759 C765.23261,275.212879 762.018053,275.305099 760.055986,275.445931 L718.987054,278.381963 C717.024987,278.52208 715.208126,277.042269 714.949903,275.093493 L702.683229,182.589558 Z" id="Stroke-279" stroke="#082674" stroke-width="2"></path>
                        <path d="M891.3491,328.828302 C891.3491,330.794235 889.739676,332.402725 887.772601,332.402725 L867.267105,332.402725 C865.300031,332.402725 863.690607,330.794235 863.690607,328.828302 L863.690607,311.470186 C863.690607,309.504253 865.300031,307.895763 867.267105,307.895763 L887.772601,307.895763 C889.739676,307.895763 891.3491,309.504253 891.3491,311.470186 L891.3491,328.828302 Z" id="Fill-280" fill="#FFFFFF"></path>
                        <path d="M891.3491,328.828302 C891.3491,330.794235 889.739676,332.402725 887.772601,332.402725 L867.267105,332.402725 C865.300031,332.402725 863.690607,330.794235 863.690607,328.828302 L863.690607,311.470186 C863.690607,309.504253 865.300031,307.895763 867.267105,307.895763 L887.772601,307.895763 C889.739676,307.895763 891.3491,309.504253 891.3491,311.470186 L891.3491,328.828302 Z" id="Stroke-281" stroke="#082674" stroke-width="2"></path>
                        <path d="M682.004702,328.828302 C682.004702,330.794235 680.395277,332.402725 678.428203,332.402725 L657.922707,332.402725 C655.955633,332.402725 654.346209,330.794235 654.346209,328.828302 L654.346209,311.470186 C654.346209,309.504253 655.955633,307.895763 657.922707,307.895763 L678.428203,307.895763 C680.395277,307.895763 682.004702,309.504253 682.004702,311.470186 L682.004702,328.828302 Z" id="Fill-282" fill="#FFFFFF"></path>
                        <path d="M682.004702,328.828302 C682.004702,330.794235 680.395277,332.402725 678.428203,332.402725 L657.922707,332.402725 C655.955633,332.402725 654.346209,330.794235 654.346209,328.828302 L654.346209,311.470186 C654.346209,309.504253 655.955633,307.895763 657.922707,307.895763 L678.428203,307.895763 C680.395277,307.895763 682.004702,309.504253 682.004702,311.470186 L682.004702,328.828302 Z" id="Stroke-283" stroke="#082674" stroke-width="2"></path>
                        <path d="M827.19616,232.852815 L816.43233,232.852815 C816.43233,232.852815 813.213482,234.640027 816.43233,237.320844 L831.990099,237.320844 C831.990099,237.320844 834.230417,235.525769 831.990099,232.852815 L827.19616,232.852815 Z" id="Fill-284" fill="#FFFFFF"></path>
                        <path d="M827.19616,232.852815 L816.43233,232.852815 C816.43233,232.852815 813.213482,234.640027 816.43233,237.320844 L831.990099,237.320844 C831.990099,237.320844 834.230417,235.525769 831.990099,232.852815 L827.19616,232.852815 Z" id="Stroke-285" stroke="#082674" stroke-width="2"></path>
                        <path d="M826.387085,237.320844 L814.11898,237.320844 C814.11898,237.320844 810.450208,239.108056 814.11898,241.788874 L831.850544,241.788874 C831.850544,241.788874 834.404879,239.993798 831.850544,237.320844 L826.387085,237.320844 Z" id="Fill-286" fill="#FFFFFF"></path>
                        <path d="M826.387085,237.320844 L814.11898,237.320844 C814.11898,237.320844 810.450208,239.108056 814.11898,241.788874 L831.850544,241.788874 C831.850544,241.788874 834.404879,239.993798 831.850544,237.320844 L826.387085,237.320844 Z" id="Stroke-287" stroke="#082674" stroke-width="2"></path>
                        <path d="M828.966169,241.788874 L821.492718,241.788874 C821.492718,241.788874 819.258122,243.576086 821.492718,246.256903 L832.294459,246.256903 C832.294459,246.256903 833.850235,244.461828 832.294459,241.788874 L828.966169,241.788874 Z" id="Fill-288" fill="#FFFFFF"></path>
                        <path d="M828.966169,241.788874 L821.492718,241.788874 C821.492718,241.788874 819.258122,243.576086 821.492718,246.256903 L832.294459,246.256903 C832.294459,246.256903 833.850235,244.461828 832.294459,241.788874 L828.966169,241.788874 Z" id="Stroke-289" stroke="#082674" stroke-width="2"></path>
                        <path d="M710.960677,232.852815 L721.724506,232.852815 C721.724506,232.852815 724.943355,234.640027 721.724506,237.320844 L706.166738,237.320844 C706.166738,237.320844 703.92642,235.525769 706.166738,232.852815 L710.960677,232.852815 Z" id="Fill-290" fill="#FFFFFF"></path>
                        <path d="M710.960677,232.852815 L721.724506,232.852815 C721.724506,232.852815 724.943355,234.640027 721.724506,237.320844 L706.166738,237.320844 C706.166738,237.320844 703.92642,235.525769 706.166738,232.852815 L710.960677,232.852815 Z" id="Stroke-291" stroke="#082674" stroke-width="2"></path>
                        <path d="M711.769824,237.320844 L724.037929,237.320844 C724.037929,237.320844 727.706701,239.108056 724.037929,241.788874 L706.306365,241.788874 C706.306365,241.788874 703.752029,239.993798 706.306365,237.320844 L711.769824,237.320844 Z" id="Fill-292" fill="#FFFFFF"></path>
                        <path d="M711.769824,237.320844 L724.037929,237.320844 C724.037929,237.320844 727.706701,239.108056 724.037929,241.788874 L706.306365,241.788874 C706.306365,241.788874 703.752029,239.993798 706.306365,237.320844 L711.769824,237.320844 Z" id="Stroke-293" stroke="#082674" stroke-width="2"></path>
                        <path d="M709.190668,241.788874 L716.664119,241.788874 C716.664119,241.788874 718.898715,243.576086 716.664119,246.256903 L705.862378,246.256903 C705.862378,246.256903 704.306601,244.461828 705.862378,241.788874 L709.190668,241.788874 Z" id="Fill-294" fill="#FFFFFF"></path>
                        <path d="M709.190668,241.788874 L716.664119,241.788874 C716.664119,241.788874 718.898715,243.576086 716.664119,246.256903 L705.862378,246.256903 C705.862378,246.256903 704.306601,244.461828 705.862378,241.788874 L709.190668,241.788874 Z" id="Stroke-295" stroke="#082674" stroke-width="2"></path>
                        <polygon id="Stroke-296" stroke="#082674" stroke-width="2" points="860.239 101.577966 857.502263 99.7156918 871.986367 78.46074 874.722388 80.3230147"></polygon>
                        <polygon id="Stroke-297" stroke="#082674" stroke-width="2" points="862.97545 103.440527 860.238714 101.578252 865.559828 93.7695669 868.295849 95.6325564"></polygon>
                        <polygon id="Stroke-298" stroke="#082674" stroke-width="2" points="865.711972 105.303088 862.975236 103.440813 873.162534 88.4911442 875.898555 90.3541338"></polygon>
                        <polygon id="Stroke-299" stroke="#082674" stroke-width="2" points="868.448351 107.165648 865.711615 105.303374 868.024894 101.908386 870.76163 103.771376"></polygon>
                        <polyline id="Stroke-300" stroke="#082674" stroke-width="2" points="872.867401 70.0474765 854.188065 97.4590153 873.256524 110.437747"></polyline>
                        <polyline id="Stroke-301" stroke="#082674" stroke-width="2" points="673.61066 92.5621981 664.184441 73.0537096 671.375348 77.7197621 665.302454 61.5776656 670.825283 60.1071478 669.06493 52.6573344 680.964656 42.9034476"></polyline>
                        <polyline id="Stroke-302" stroke="#082674" stroke-width="2" points="648.381039 69.6112539 671.013836 97.1915055 715.628508 60.6222937"></polyline>
                    </g>
                    <text id="33%" font-family="AdventPro-Regular, Advent Pro" font-size="35.2556" font-weight="normal" fill="#082674">
                        <tspan x="685" y="41">33%</tspan>
                    </text>
                </g>
            </g>
        </g>
    </g>
</svg>